<?xml version="1.0" standalone="no"?><!DOCTYPE svg PUBLIC "-//W3C//DTD SVG 1.1//EN" "http://www.w3.org/Graphics/SVG/1.1/DTD/svg11.dtd"><svg t="1740386102484" class="icon" viewBox="0 0 1024 1024" version="1.1" xmlns="http://www.w3.org/2000/svg" p-id="6355" xmlns:xlink="http://www.w3.org/1999/xlink" width="200" height="200"><path d="M893.531011 131.215191L515.361232 2.361034A54.732548 54.732548 0 0 0 498.575845 0.006648c-6.093705 0-12.242807 0.803261-16.785386 2.354386L103.592981 131.215191c-9.223653 3.129948-16.813085 13.82163-16.813085 23.599257v536.85539c0 9.805325 6.370691 22.7129 14.043219 28.834304l383.626415 298.923917a22.989886 22.989886 0 0 0 13.987822 4.570279c5.124252 0 10.248503-1.578824 14.04322-4.570279l383.626414-298.923917c7.64483-6.010609 13.987822-18.918183 13.987822-28.806605V154.786749c0.221589-9.777626-7.340144-20.358514-16.563797-23.599257z m-63.319132 539.098982l-331.663732 258.42848-331.636033-258.42848V194.451227L498.575845 81.357606l331.663732 113.093621v475.862946z m-451.62662-223.694363a17.921032 17.921032 0 0 0-14.4587-7.340144h-61.435624c-7.22935 0-11.467244 8.226501-7.229349 14.126316l140.653785 193.641318a17.893333 17.893333 0 0 0 28.945098 0l236.601937-325.736219a8.946667 8.946667 0 0 0-7.229349-14.126315h-61.435624c-5.678225 0-11.134861 2.769866-14.4587 7.340144l-167.936963 231.256096-72.016511-99.161196z" p-id="6356"></path></svg>