<?xml version="1.0" standalone="no"?><!DOCTYPE svg PUBLIC "-//W3C//DTD SVG 1.1//EN" "http://www.w3.org/Graphics/SVG/1.1/DTD/svg11.dtd"><svg t="1741060032703" class="icon" viewBox="0 0 1024 1024" version="1.1" xmlns="http://www.w3.org/2000/svg" p-id="13900" xmlns:xlink="http://www.w3.org/1999/xlink" width="200" height="200"><path d="M354.40128 0c-87.04 0-157.44 70.55872-157.44 157.59872v275.68128H78.72c-21.6576 0-39.36256 17.69984-39.36256 39.36256v236.31872c0 21.6576 17.69984 39.35744 39.36256 39.35744h118.24128v118.08256c0 87.04 70.4 157.59872 157.44 157.59872h472.63744c87.04 0 157.59872-70.55872 157.59872-157.59872V315.0336c0-41.74848-38.9888-81.93024-107.52-149.27872l-29.11744-29.12256L818.87744 107.52C751.5392 38.9888 711.39328 0 669.59872 0H354.4064z m0 78.72h287.20128c28.35456 7.0912 27.99616 42.1376 27.99616 76.8v120.16128c0 21.6576 17.69984 39.35744 39.36256 39.35744h118.07744c39.38816 0 78.87872-0.0256 78.87872 39.36256v512c0 43.32032-35.55328 78.87872-78.87872 78.87872H354.4064c-43.32544 0-78.72-35.5584-78.72-78.87872v-118.08256h393.91744c21.66272 0 39.36256-17.69472 39.36256-39.35744V472.64256c0-21.66272-17.69984-39.36256-39.36256-39.36256H275.68128V157.59872c0-43.32032 35.39456-78.87872 78.72-78.87872zM134.5536 507.36128h48c23.04 0 39.04 3.84 48 11.52 9.6 7.04 14.40256 17.92 14.40256 32.64 0 21.76-11.84256 34.56-35.52256 38.4v0.95744c26.88 4.48 40.32 18.24256 40.32 41.28256 0 15.36-5.12 27.83744-15.36 37.43744-9.6 8.96-23.35744 13.44-41.27744 13.44H134.5536V507.36128z m152.64256 0h32.64l49.92 143.03744h0.95744l48.96256-143.03744h33.59744v175.67744H431.2064v-106.55744c0-10.88 0.31744-26.56256 0.95744-47.04256h-0.95744l-52.80256 153.6h-19.2l-52.79744-153.6h-0.96256c1.28 22.4 1.92 38.72256 1.92 48.96256v104.63744h-20.15744V507.36128z m214.07744 0h43.20256c20.48 0 35.84 4.48 46.08 13.44 10.24 8.32 15.36 21.12 15.36 38.4s-5.44256 31.03744-16.32256 41.27744c-10.88 9.6-26.88 14.40256-48 14.40256h-18.23744v68.15744h-22.08256V507.36128z m-344.63744 19.2v55.68h29.75744c12.8 0 21.76-2.24256 26.88-6.72256 5.76-5.12 8.64256-12.47744 8.64256-22.07744 0-8.96-3.2-15.68256-9.6-20.16256s-16-6.71744-28.8-6.71744h-26.88z m366.72 0v69.12h15.36c16 0 27.19744-2.88256 33.59744-8.64256 7.04-5.76 10.56256-14.72 10.56256-26.88 0-10.88-3.52256-19.2-10.56256-24.96-6.4-5.76-16.31744-8.63744-29.75744-8.63744h-19.2zM156.64128 600.4736v63.36h31.67744c12.8 0 22.08256-2.56 27.84256-7.68 6.4-5.76 9.6-14.08 9.6-24.96 0-10.24-3.2-17.92-9.6-23.04s-16-7.68-28.8-7.68h-30.72z" p-id="13901" fill="#4998fe"></path></svg>