<?xml version="1.0" standalone="no"?><!DOCTYPE svg PUBLIC "-//W3C//DTD SVG 1.1//EN" "http://www.w3.org/Graphics/SVG/1.1/DTD/svg11.dtd"><svg t="1750423985563" class="icon" viewBox="0 0 1024 1024" version="1.1" xmlns="http://www.w3.org/2000/svg" p-id="21597" xmlns:xlink="http://www.w3.org/1999/xlink" width="200" height="200"><path d="M456.028859 906.917243H97.56897a11.915391 11.915391 0 0 1-11.927868-11.915391v-797.270689a11.927868 11.927868 0 0 1 3.493518-8.43435 11.927868 11.927868 0 0 1 8.43435-3.493518h735.92202a11.915391 11.915391 0 0 1 8.43435 3.493518 11.927868 11.927868 0 0 1 3.493518 8.43435v310.673555a42.589726 42.589726 0 1 0 85.179452 0v-310.673555A97.057413 97.057413 0 0 0 833.503467 0.636319H97.56897A97.057413 97.057413 0 0 0 0.474127 97.74364v797.270689a97.057413 97.057413 0 0 0 97.094843 97.082367h358.459889a42.589726 42.589726 0 1 0 0-85.179453z" fill="#8b8b8b" p-id="21598"></path><path d="M192.966962 591.764499h204.420704a39.177308 39.177308 0 1 1 0 78.354616H192.966962a39.177308 39.177308 0 1 1 0-78.354616zM661.435234 719.56487H855.637398a39.177308 39.177308 0 0 1 0 78.354615H661.435234a39.177308 39.177308 0 0 1 0-78.354615z" fill="#8b8b8b" p-id="21599"></path><path d="M797.719862 661.609903v194.202164a39.177308 39.177308 0 1 1-78.354615 0V661.609903a39.177308 39.177308 0 0 1 78.354615 0z" fill="#8b8b8b" p-id="21600"></path><path d="M758.530077 569.530753a189.18647 189.18647 0 1 1-133.776781 55.40969 187.938785 187.938785 0 0 1 133.776781-55.40969m0-74.861097c-145.829418 0-264.047568 118.21815-264.047568 264.047568s118.21815 264.035091 264.047568 264.035091S1022.577645 904.534165 1022.577645 758.717224s-118.21815-264.047568-264.047568-264.047568zM734.050498 457.488644h-541.495272a39.002632 39.002632 0 0 1-38.89034-38.89034 39.002632 39.002632 0 0 1 38.89034-38.89034h541.495272a39.002632 39.002632 0 0 1 38.890341 38.89034 39.002632 39.002632 0 0 1-38.890341 38.89034z m38.890341-257.235208a39.002632 39.002632 0 0 0-38.890341-38.89034h-541.495272a39.002632 39.002632 0 0 0-38.89034 38.89034 39.002632 39.002632 0 0 0 38.89034 38.89034h541.495272a39.002632 39.002632 0 0 0 38.890341-38.89034z" fill="#8b8b8b" p-id="21601"></path></svg>