<?xml version="1.0" standalone="no"?><!DOCTYPE svg PUBLIC "-//W3C//DTD SVG 1.1//EN" "http://www.w3.org/Graphics/SVG/1.1/DTD/svg11.dtd"><svg t="1741342697075" class="icon" viewBox="0 0 1024 1024" version="1.1" xmlns="http://www.w3.org/2000/svg" p-id="3734" xmlns:xlink="http://www.w3.org/1999/xlink" width="200" height="200"><path d="M743.36 0L1024 282.453v656.214A85.333 85.333 0 0 1 938.667 1024H213.333A85.333 85.333 0 0 1 128 938.667V832H42.667A42.667 42.667 0 0 1 0 789.333V426.667A42.667 42.667 0 0 1 42.667 384H128V85.333A85.333 85.333 0 0 1 213.333 0H743.36z m-26.645 64H213.333A21.333 21.333 0 0 0 192 85.333V384h640a42.667 42.667 0 0 1 42.667 42.667v362.666A42.667 42.667 0 0 1 832 832H192v106.667A21.333 21.333 0 0 0 213.333 960h725.334A21.333 21.333 0 0 0 960 938.667V308.82l-10.09-10.154H823.38a98.048 98.048 0 0 1-98.048-98.048V72.683L716.715 64z" fill="#3878FF" p-id="3735"></path><path d="M58.475 472.49h70.57c31.36 0 54.87 12.289 71.104 36.865 15.403 23.04 23.254 56.448 23.254 100.224 0 43.392-7.851 76.8-23.254 100.224-16.213 24.576-39.744 36.864-71.104 36.864H58.453V472.49z m31.637 38.4v197.377h32.981c24.064 0 41.643-8.064 52.715-23.808 10.816-16.128 16.213-41.088 16.213-74.88 0-34.56-5.397-59.904-16.213-75.264-11.093-15.744-28.65-23.424-52.715-23.424H90.112z m248.747-43.775c29.44 0 52.693 13.44 69.738 40.704 16.214 25.728 24.32 59.904 24.32 102.144s-8.106 76.032-24.32 101.76c-17.024 26.88-40.277 40.32-69.76 40.32-29.738 0-52.992-13.824-69.76-40.704-16.213-26.112-24.042-59.904-24.042-101.376 0-41.856 7.829-75.648 24.042-101.76 16.768-27.648 40.022-41.088 69.76-41.088z m0 39.552c-20.032 0-35.435 9.6-46.507 28.8-10.56 18.432-15.701 43.008-15.701 74.496 0 31.104 5.141 55.68 15.68 74.112 10.816 18.816 26.496 28.416 46.506 28.416 20.011 0 35.414-9.216 46.23-27.264 10.56-18.048 15.957-43.008 15.957-75.264s-5.397-57.6-15.957-76.032c-10.816-18.432-26.219-27.264-46.23-27.264z m207.616-39.552c22.72 0 41.642 8.448 56.234 25.344 14.08 16.128 22.443 38.4 25.43 66.048h-30.827c-3.243-18.048-9.195-31.104-18.133-39.552-8.64-8.448-19.712-12.288-33.238-12.288-20.266 0-35.413 9.6-45.696 29.568-9.45 17.664-14.058 42.24-14.058 73.728 0 32.256 4.608 57.216 13.781 74.496 10.027 18.432 25.685 28.032 46.784 28.032 13.781 0 25.152-4.992 33.792-14.208 9.195-10.368 15.68-26.112 19.477-46.848h30.806c-4.31 32.256-14.315 57.216-30.272 75.264-14.87 16.896-32.726 25.344-53.547 25.344-32.15 0-56.213-14.592-71.893-43.008-13.803-24.576-20.566-57.6-20.566-99.072 0-40.704 7.04-74.112 21.376-99.456 16.214-29.184 39.744-43.392 70.55-43.392z m100.842 5.376h38.678l45.418 96.768 45.419-96.768h38.656l-65.152 132.48 69.483 141.696h-38.656l-49.75-105.984-49.749 105.984h-38.677l68.928-141.696-64.619-132.48z" fill="#FFFFFF" p-id="3736"></path></svg>