<?xml version="1.0" standalone="no"?><!DOCTYPE svg PUBLIC "-//W3C//DTD SVG 1.1//EN" "http://www.w3.org/Graphics/SVG/1.1/DTD/svg11.dtd"><svg t="1741576338921" class="icon" viewBox="0 0 1026 1024" version="1.1" xmlns="http://www.w3.org/2000/svg" p-id="2651" xmlns:xlink="http://www.w3.org/1999/xlink" width="200.390625" height="200"><path d="M739.896208 4.087824H214.610778c-48.031936 0-85.844311 37.812375-85.844311 85.844312v296.367265H42.922156C20.439122 386.299401 1.021956 405.716567 1.021956 428.199601v359.728543c0 25.548902 19.417166 44.966068 41.9002 44.966068h85.844311v105.261477c0 48.031936 37.812375 85.844311 85.844311 85.844311h723.544911c48.031936 0 85.844311-37.812375 85.844311-85.844311v-654.051897L739.896208 4.087824z m216.65469 933.045909c0 12.263473-9.197605 22.483034-22.483034 22.483033H214.610778c-12.263473 0-22.483034-9.197605-22.483033-22.483033V831.872255h636.678642c22.483034 0 41.9002-19.417166 41.9002-41.900199V427.177645c0-22.483034-19.417166-41.9002-41.9002-41.9002H192.127745v-296.367265c0-12.263473 9.197605-22.483034 22.483033-22.483034h499.736527l9.197605 9.197604V204.391218c0 54.163673 44.966068 99.129741 99.129741 99.12974H950.419162l6.131736 9.197605v624.41517zM390.387226 588.646707v37.812375H252.423154v81.756487h153.293413V746.027944H208.479042V475.209581H398.562874v37.812375H252.423154v75.624751h137.964072z m78.690618-75.624751v-37.812375H684.710579v37.812375h-85.844312V746.027944h-42.922155V513.021956h-86.866268z" fill="#8BC755" p-id="2652"></path></svg>