<?xml version="1.0" standalone="no"?><!DOCTYPE svg PUBLIC "-//W3C//DTD SVG 1.1//EN" "http://www.w3.org/Graphics/SVG/1.1/DTD/svg11.dtd"><svg class="icon" width="48px" height="48.00px" viewBox="0 0 1024 1024" version="1.1" xmlns="http://www.w3.org/2000/svg"><path d="M145.6128 0c-45.0048 0.2048-81.408 36.608-81.6128 81.6128v860.7744c0.2048 45.0048 36.608 81.408 81.6128 81.6128h732.7744c45.0048-0.2048 81.408-36.608 81.6128-81.6128V324.8128L657.6128 0h-512z" fill="#22D6B8" /><path d="M960 326.4v15.9744h-204.7488s-100.8128-20.7872-97.5872-107.2128c0 0 3.1744 91.2384 96 91.2384h206.336z" fill="#08A57C" /><path d="M657.6128 0v233.5744c0 27.1872 17.6128 92.8256 97.5872 92.8256h204.8L657.6128 0z" fill="#91EDD3" /><path d="M354.9696 641.8944v20.8896H252.9792v80.7424h94.208v20.5312h-94.208v100.9152h-25.4976v-223.0784h127.488zM420.864 655.7184c-4.7104 0-8.6528-1.536-11.8784-4.608-3.1744-3.072-4.7616-7.0656-4.7616-12.032 0-4.9664 1.5872-9.0112 4.7616-12.2368 3.1744-3.1744 7.1168-4.7616 11.8784-4.7616 4.2496 0 8.0896 1.536 11.52 4.608 3.4304 3.072 5.12 7.2192 5.12 12.3904s-1.6384 9.2672-4.9664 12.2368c-3.328 2.9184-7.2192 4.4032-11.6736 4.4032z m-12.3904 209.2544v-166.4512h24.7808v166.4512h-24.7808zM506.5728 864.9728v-251.4432h24.4224v251.4432h-24.4224zM734.6176 783.5136h-118.9888v3.1744c0 19.6096 5.3248 34.816 15.9232 45.6704 10.6496 10.8544 25.1392 16.2816 43.5712 16.2816 8.2432 0 15.9232-0.6656 23.04-1.9456 7.0656-1.28 14.3872-3.4816 21.9648-6.5536l5.3248 18.432c-6.6048 2.816-14.336 5.12-23.1936 6.912-8.8576 1.792-18.2272 2.6624-28.16 2.6624-11.5712 0-22.4256-1.6384-32.5632-4.9664-10.1376-3.328-19.0464-8.448-26.7264-15.4112-7.68-6.9632-13.7728-15.872-18.2272-26.7264-4.5056-10.8544-6.7072-23.8592-6.7072-38.9632 0-13.0048 1.8944-24.7808 5.6832-35.4304 3.7888-10.6496 9.0112-19.6608 15.7696-27.0848s14.8992-13.1584 24.4224-17.152c9.5744-3.9936 20.224-6.0416 32.0512-6.0416 10.1376 0 19.3024 1.6896 27.4432 5.12 8.1408 3.4304 15.1552 8.2944 21.0944 14.6944 5.888 6.4 10.4448 14.0288 13.6192 23.04 3.1744 8.96 4.7616 18.8928 4.7616 29.7472v14.5408z m-25.4976-18.3808c0-6.6048-0.8192-12.9024-2.4576-18.944a46.87872 46.87872 0 0 0-7.6288-15.9232c-3.4304-4.608-7.8336-8.2432-13.2608-10.9568-5.4272-2.7136-11.9296-4.0448-19.456-4.0448-13.6704 0-24.9856 4.5056-33.792 13.4656-8.8576 8.96-14.2336 21.248-16.128 36.8128l92.7232-0.4096z" fill="#FFFFFF" /></svg>