<?xml version="1.0" standalone="no"?><!DOCTYPE svg PUBLIC "-//W3C//DTD SVG 1.1//EN" "http://www.w3.org/Graphics/SVG/1.1/DTD/svg11.dtd"><svg t="1737360201876" class="icon" viewBox="0 0 1024 1024" version="1.1" xmlns="http://www.w3.org/2000/svg" p-id="8015" xmlns:xlink="http://www.w3.org/1999/xlink" width="200" height="200"><path d="M626.048 115.2a33.28 33.28 0 0 1 20.288 6.848l3.328 2.88 161.536 161.6a49.92 49.92 0 0 1 14.4 30.4l0.192 4.928v192.832a33.28 33.28 0 0 1-66.304 3.84l-0.256-3.84V328.704L612.224 181.76H226.56v665.856h266.368a33.28 33.28 0 0 1 33.024 29.376l0.256 3.84a33.28 33.28 0 0 1-29.44 33.088l-3.84 0.256H209.92a49.92 49.92 0 0 1-49.664-45.12l-0.256-4.8V165.12a49.92 49.92 0 0 1 45.12-49.664L209.92 115.2h416.128z" p-id="8016"></path><path d="M592.768 115.2a33.28 33.28 0 0 1 33.088 29.44l0.192 3.84v166.464h166.464a33.28 33.28 0 0 1 33.088 29.44l0.192 3.84a33.28 33.28 0 0 1-29.376 33.088l-3.84 0.192H609.344a49.92 49.92 0 0 1-49.664-45.12l-0.256-4.8v-183.04a33.28 33.28 0 0 1 33.28-33.344zM359.744 647.872h66.56c22.208 0 33.28 11.072 33.28 33.28 0 22.208-11.072 33.28-33.28 33.28h-66.56c-22.208 0-33.28-11.072-33.28-33.28 0-22.208 11.072-33.28 33.28-33.28zM359.744 514.688h133.12c22.208 0 33.28 11.072 33.28 33.28 0 22.208-11.072 33.28-33.28 33.28h-133.12c-22.208 0-33.28-11.072-33.28-33.28 0-22.208 11.072-33.28 33.28-33.28zM359.744 381.504h99.84c22.208 0 33.28 11.136 33.28 33.28 0 22.208-11.072 33.28-33.28 33.28h-99.84c-22.208 0-33.28-11.072-33.28-33.28 0-22.144 11.072-33.28 33.28-33.28zM626.048 747.712a49.92 49.92 0 1 0 99.84 0 49.92 49.92 0 0 0-99.84 0z" p-id="8017"></path><path d="M770.368 581.248h-188.8l-93.568 166.464 93.632 166.464h188.8l93.568-166.4-93.632-166.528z m-38.912 66.56l56.128 99.904-56.192 99.84H620.608l-56.256-99.84 56.192-99.84h110.912z" p-id="8018"></path></svg>