<?xml version="1.0" standalone="no"?><!DOCTYPE svg PUBLIC "-//W3C//DTD SVG 1.1//EN" "http://www.w3.org/Graphics/SVG/1.1/DTD/svg11.dtd"><svg t="1741060062244" class="icon" viewBox="0 0 1024 1024" version="1.1" xmlns="http://www.w3.org/2000/svg" p-id="15010" xmlns:xlink="http://www.w3.org/1999/xlink" width="200" height="200"><path d="M176.13312 481.83808c-16.8448 0-31.4112 7.20384-43.6992 21.55008-12.32384 14.37696-18.45248 44.75904-18.45248 91.18208s6.12864 77.09184 18.45248 92.01152c12.288 14.91968 26.85952 22.37952 43.6992 22.37952 16.81408 0 31.0784-7.45984 42.73152-22.37952 11.65312-14.91968 17.47968-45.58848 17.47968-92.01152s-5.82656-76.80512-17.47968-91.18208c-11.65312-14.34624-25.91232-21.55008-42.73152-21.55008z" fill="#1A8EF7" p-id="15011"></path><path d="M743.36256 0H213.33504C166.20544 0 128 38.20544 128 85.33504V384H42.66496A42.66496 42.66496 0 0 0 0 426.66496v362.66496a42.66496 42.66496 0 0 0 42.66496 42.67008H128v106.67008C128 985.79456 166.20544 1024 213.33504 1024h725.33504c47.12448 0 85.32992-38.20544 85.32992-85.32992V282.45504L743.36256 0zM96.50176 706.47296c-19.42016-22.64064-29.1328-59.93984-29.1328-111.90272 0-51.93728 9.71264-88.95488 29.1328-111.07328 19.42016-22.09792 45.94688-33.15712 79.63136-33.15712 33.65888 0 59.8784 11.0592 78.65856 33.15712 18.75968 22.1184 28.16512 59.14112 28.16512 111.07328 0 51.96288-9.40544 89.2672-28.16512 111.90272-18.78016 22.66624-45.0048 33.98656-78.65856 33.98656-33.68448 0-60.20608-11.32032-79.63136-33.98656zM960 938.67008a21.32992 21.32992 0 0 1-21.32992 21.32992H213.33504a21.33504 21.33504 0 0 1-21.33504-21.32992V832h640a42.66496 42.66496 0 0 0 42.67008-42.67008V426.66496A42.66496 42.66496 0 0 0 832 384h-640V85.33504a21.33504 21.33504 0 0 1 21.33504-21.33504h503.38304l8.61696 8.65792v127.95904c0 54.14912 43.89888 98.048 98.048 98.048h126.53056l10.09152 10.15296v629.85216z m-469.21728-360.6784v31.49824h-120.4224v127.65696h-44.672v-283.4944h203.93472v31.49824H370.36544v92.84096h120.41728z m81.57696 159.1552v-283.4944h66.03264c47.89248 0 83.18464 11.06432 105.856 33.15712 22.64064 22.1184 33.99168 58.59328 33.99168 109.41952 0 50.85184-12.62592 87.03488-37.87264 108.59008-25.25184 21.55008-59.23328 32.32256-101.96992 32.32256h-66.03776z" fill="#1A8EF7" p-id="15012"></path><path d="M638.39744 485.15072h-21.36576v220.4928h21.36576c31.0784 0 54.38464-8.00256 69.92384-24.03328 15.5392-16.01024 23.30624-44.48256 23.30624-85.38112 0-40.87808-7.76704-69.632-23.30624-86.21056s-38.84544-24.86784-69.92384-24.86784z" fill="#1A8EF7" p-id="15013"></path></svg>