<?xml version="1.0" standalone="no"?><!DOCTYPE svg PUBLIC "-//W3C//DTD SVG 1.1//EN" "http://www.w3.org/Graphics/SVG/1.1/DTD/svg11.dtd"><svg t="1750387730950" class="icon" viewBox="0 0 1024 1024" version="1.1" xmlns="http://www.w3.org/2000/svg" p-id="7358" xmlns:xlink="http://www.w3.org/1999/xlink" width="200" height="200"><path d="M320 640h-106.666667v-128h597.333334v128h85.333333v-149.333333c0-36.266667-29.866667-64-68.266667-64H554.666667v-42.666667h85.333333c36.266667 0 64-29.866667 64-64V64c0-36.266667-27.733333-64-64-64H384c-36.266667 0-64 27.733333-64 64v256c0 34.133333 27.733333 64 64 64h85.333333v42.666667H196.266667C157.866667 426.666667 128 454.4 128 490.666667v149.333333H64c-36.266667 0-64 27.733333-64 64v256c0 34.133333 27.733333 64 64 64h256c36.266667 0 64-29.866667 64-64V704c0-36.266667-27.733333-64-64-64z m85.333333-341.333333V85.333333h213.333334v213.333334H405.333333z m-106.666666 640H85.333333V725.333333h213.333334v213.333334z" p-id="7359" fill="#8b8b8b"></path><path d="M896 810.666667v-128h-85.333333v128h-128v85.333333h128v128h85.333333v-128h128v-85.333333z" p-id="7360" fill="#8b8b8b"></path></svg>