<?xml version="1.0" standalone="no"?><!DOCTYPE svg PUBLIC "-//W3C//DTD SVG 1.1//EN" "http://www.w3.org/Graphics/SVG/1.1/DTD/svg11.dtd"><svg t="1741342812476" class="icon" viewBox="0 0 1024 1024" version="1.1" xmlns="http://www.w3.org/2000/svg" p-id="4921" data-spm-anchor-id="a313x.search_index.0.i3.335c3a81S83Yhn" xmlns:xlink="http://www.w3.org/1999/xlink" width="200" height="200"><path d="M192 384h640a42.688 42.688 0 0 1 42.688 42.688v362.624A42.688 42.688 0 0 1 832 832H192v106.688a21.312 21.312 0 0 0 21.312 21.312h725.376c11.776 0 21.312-9.6 21.312-21.312V308.8l-10.112-10.112h-126.528a98.048 98.048 0 0 1-98.048-98.048v-128L716.8 64H213.312A21.312 21.312 0 0 0 192 85.312V384z m-64 448H42.688A42.688 42.688 0 0 1 0 789.312V426.688A42.688 42.688 0 0 1 42.688 384H128V85.312C128 38.208 166.208 0 213.312 0h530.048L1024 282.432v656.256c0 47.104-38.208 85.312-85.312 85.312H213.312A85.312 85.312 0 0 1 128 938.688V832z m-39.552-359.488v274.176h44.928v-105.216h67.968c66.816 0 100.224-28.416 100.224-84.864 0-56.064-33.408-84.096-99.456-84.096H88.448z m44.928 38.4h65.28c19.584 0 34.176 3.456 43.392 10.752 9.216 6.912 14.208 18.432 14.208 34.944 0 16.512-4.608 28.416-13.824 35.712-9.216 6.912-23.808 10.752-43.776 10.752h-65.28v-92.16z m206.592-38.4v274.176h100.224c44.544 0 77.952-12.288 100.992-36.864 21.888-23.424 33.024-56.832 33.024-100.224 0-43.776-11.136-77.184-33.024-100.224-23.04-24.576-56.448-36.864-100.992-36.864H339.968z m44.928 38.4h46.848c34.176 0 59.136 7.68 74.88 23.424 15.36 15.36 23.04 40.704 23.04 75.264 0 33.792-7.68 58.752-23.04 74.88-15.744 15.744-40.704 23.808-74.88 23.808h-46.848V510.912z m231.552-38.4v274.176h44.928V625.28h134.016v-38.4h-134.016V510.912h142.08v-38.4H616.448z" fill="#E64E4E" p-id="4922"></path></svg>