<?xml version="1.0" standalone="no"?><!DOCTYPE svg PUBLIC "-//W3C//DTD SVG 1.1//EN" "http://www.w3.org/Graphics/SVG/1.1/DTD/svg11.dtd"><svg t="1741588179484" class="icon" viewBox="0 0 1137 1024" version="1.1" xmlns="http://www.w3.org/2000/svg" p-id="4533" xmlns:xlink="http://www.w3.org/1999/xlink" width="222.0703125" height="200"><path d="M427.008 512.341333a141.767111 141.767111 0 0 1-100.807111-42.211555 151.324444 151.324444 0 0 1-30.492445-45.511111 135.395556 135.395556 0 0 1-11.377777-54.840889c0-19.342222 3.754667-37.774222 11.377777-54.954667a145.635556 145.635556 0 0 1 30.378667-45.056c12.743111-12.629333 27.761778-22.755556 45.056-30.378667 17.180444-7.623111 35.84-11.377778 55.751111-11.377777 19.342222 0 37.774222 3.754667 55.068445 11.377777 17.180444 7.509333 32.199111 17.749333 44.942222 30.378667 12.743111 12.743111 22.755556 27.761778 30.378667 45.056 7.623111 17.180444 11.377778 35.498667 11.377777 54.954667 0 19.342222-3.754667 37.546667-11.377777 54.954666a151.324444 151.324444 0 0 1-30.378667 45.397334 141.767111 141.767111 0 0 1-99.896889 42.211555z m710.314667 511.431111H0V0h1137.322667v1023.772444z m-113.550223-910.222222H114.460444V815.786667a616.675556 616.675556 0 0 1 36.408889-47.217778c13.198222-15.815111 27.192889-30.037333 41.756445-42.780445 14.449778-12.629333 29.582222-23.096889 44.942222-31.288888a98.986667 98.986667 0 0 1 46.762667-12.288c18.773333 0 34.929778 1.365333 48.583111 4.096a207.872 207.872 0 0 1 65.991111 24.576 210.147556 210.147556 0 0 0 113.550222 28.672c18.659556 0 34.929778-5.688889 48.469333-16.952889 13.653333-11.150222 26.168889-25.258667 37.774223-42.097778 11.377778-17.066667 22.983111-35.271111 34.474666-54.613333 11.491556-19.342222 24.576-37.546667 39.025778-54.499556 14.563556-16.952889 31.857778-31.061333 51.768889-42.211556 20.024889-11.264 44.259556-16.839111 72.817778-16.839111 24.120889 0 47.445333 7.395556 69.859555 22.300445 22.414222 14.791111 43.235556 34.133333 62.236445 57.685333 19.114667 23.552 36.636444 49.948444 52.679111 78.961778 16.042667 29.127111 30.151111 57.571556 42.211555 85.333333V113.664z" fill="#4999FE" p-id="4534"></path></svg>