<?xml version="1.0" standalone="no"?><!DOCTYPE svg PUBLIC "-//W3C//DTD SVG 1.1//EN" "http://www.w3.org/Graphics/SVG/1.1/DTD/svg11.dtd"><svg t="1737359336184" class="icon" viewBox="0 0 1024 1024" version="1.1" xmlns="http://www.w3.org/2000/svg" p-id="6082" xmlns:xlink="http://www.w3.org/1999/xlink" width="200" height="200"><path d="M928 736h-26v-96c0-17.7-14.3-32-32-32H659.2v-96.4c32.1-21.8 59.2-50.6 79-84.2 23.7-40.2 36.2-86.2 36.2-133.1 0-70.1-27.3-136-76.9-185.5C648 59.3 582.1 32 512 32s-136 27.3-185.5 76.9c-49.6 49.6-76.9 115.5-76.9 185.5 0 46.9 12.5 92.9 36.2 133.1 19.8 33.5 46.9 62.4 79 84.2V608H168c-17.7 0-32 14.3-32 32v96H96c-17.7 0-32 14.3-32 32v192c0 17.7 14.3 32 32 32h832c17.7 0 32-14.3 32-32V768c0-17.7-14.3-32-32-32zM340.9 395c-17.9-30.3-27.3-65.1-27.3-100.6C313.6 185 402.6 96 512 96s198.4 89 198.4 198.4c0 35.5-9.5 70.2-27.3 100.6-17.4 29.5-42.2 54.2-71.9 71.3l-16 9.2V608H428.8V475.5l-16-9.2c-29.6-17.2-54.5-41.8-71.9-71.3zM200 672h638v64H200v-64z m696 256H128V800h768v128z" p-id="6083"></path></svg>