<?xml version="1.0" standalone="no"?><!DOCTYPE svg PUBLIC "-//W3C//DTD SVG 1.1//EN" "http://www.w3.org/Graphics/SVG/1.1/DTD/svg11.dtd"><svg t="1743775165216" class="icon" viewBox="0 0 1024 1024" version="1.1" xmlns="http://www.w3.org/2000/svg" p-id="8390" xmlns:xlink="http://www.w3.org/1999/xlink" width="200" height="200"><path d="M480 170.666667H234.666667a96.341333 96.341333 0 0 0-96 96v341.333333A96.341333 96.341333 0 0 0 234.666667 704h245.333333v27.818667l-212.352 58.282666 14.037333 62.464L512 790.314667l230.314667 62.293333 14.037333-62.506667-212.352-58.282666V704h245.333333a96.341333 96.341333 0 0 0 96-96v-341.333333A96.341333 96.341333 0 0 0 789.333333 170.666667h-309.333333zM234.666667 234.666667h554.666666a31.573333 31.573333 0 0 1 32 32v341.333333a31.573333 31.573333 0 0 1-32 32h-554.666666a31.573333 31.573333 0 0 1-32-32v-341.333333a31.573333 31.573333 0 0 1 32-32z m394.922666 78.506666L510.506667 469.333333 425.685333 363.434667l-156.501333 143.744 42.965333 46.976 113.493334-106.154667 87.893333 106.154667 118.784-155.008 80.256 68.010666 41.514667-48.981333-124.501334-105.002667z" p-id="8391" fill="#707070"></path></svg>