<?xml version="1.0" standalone="no"?><!DOCTYPE svg PUBLIC "-//W3C//DTD SVG 1.1//EN" "http://www.w3.org/Graphics/SVG/1.1/DTD/svg11.dtd"><svg t="1741342619311" class="icon" viewBox="0 0 1024 1024" version="1.1" xmlns="http://www.w3.org/2000/svg" p-id="2662" xmlns:xlink="http://www.w3.org/1999/xlink" width="200" height="200"><path d="M604.717767 1023.9928h-72.239351c-109.544616-20.159819-220.895215-39.761643-328.578648-58.717872C137.079568 953.511433 67.986589 941.347143 0 929.169652V95.538342C67.93739 83.366851 137.029169 71.119761 203.848169 59.279467l0.046799-0.0084h0.0192C312.477193 40.02084 424.737384 20.121419 535.137592 0h69.580175v95.279144c22.833395 0.196798 47.733171 0.292797 76.121316 0.292797 26.823359 0 54.078714-0.083999 80.435277-0.166798h0.154799c26.386563-0.082799 53.670718-0.166799 80.561276-0.166799 53.43192 0 96.605132 0.359997 135.86998 1.11599a40.446837 40.446837 0 0 1 44.902396 45.515591c1.13759 130.369229 1.009191 263.011237 0.884392 391.286485v0.051599c-0.099599 102.578678-0.201598 208.649325 0.344397 312.80959a143.365112 143.365112 0 0 1-11.315898 72.294551 109.170219 109.170219 0 0 1-50.434347 12.350289c-2.771975 0-5.57875-0.106799-8.341125-0.319198H604.717767v93.644759z m0.0516-225.837971v95.279144h383.99655V131.071222h-383.99655v83.351252h302.435682v47.567572H604.769367v59.639464h302.435682V368.636688H604.769367v60.262259h302.435682v46.386783H604.769367v60.210659h302.435682V583.674756H604.769367v58.879871h302.435682v48.485564H604.769367v59.03947h302.435682v48.075168zM321.501112 675.371932a204.77936 204.77936 0 0 1 22.481798 1.732785h0.022799a204.726561 204.726561 0 0 0 22.515398 1.736384 63.45783 63.45783 0 0 0 11.843894-0.992391 37.354464 37.354464 0 0 0 10.648704-3.599968c18.153437-72.34975 34.268092-146.638683 49.851152-218.471237v-0.0204c9.119918-42.020022 18.541033-85.470432 28.275346-128.077249-19.217827 1.226389-44.5124 2.746775-69.733773 3.634767-3.599968 21.11981-7.300734 42.587617-10.876703 63.348631l-0.018 0.103199c-10.390707 60.330658-21.13661 122.714497-30.885322 184.252345-15.772658-74.898527-31.530917-153.718619-48.178367-240.945835-7.714731 0.406796-15.505061 0.794393-23.039793 1.168789l-0.207598 0.0108c-14.181473 0.705594-28.845341 1.439987-43.313611 2.303979h0.051599l-2.482777 11.563096-0.0132 0.0636c-15.62866 72.784146-31.788914 148.04627-47.116377 222.098804-6.969537-50.452347-15.435461-101.580287-23.622988-151.024643v-0.028799c-4.141163-25.010175-8.423924-50.872343-12.467888-76.374514-19.965421 0.693594-40.223639 1.537186-60.210659 2.507977 10.300707 59.542265 22.2778 119.791324 33.860096 178.058v0.0276c8.85112 44.5268 17.999838 90.569186 26.344563 135.973179a4372.250718 4372.250718 0 0 0 67.326595 4.095563c5.231953-25.679769 10.799903-51.801135 16.174655-77.064508l0.0072-0.036c10.633104-49.930351 21.627406-101.558688 30.665725-152.529429 9.465515 54.196313 21.076611 108.984221 32.304909 161.968545l0.0084 0.039599c5.175554 24.420981 10.527505 49.672354 15.60946 74.58653a75.70132 75.70132 0 0 1 4.174763-0.109199z" fill="#2A5699" p-id="2663"></path></svg>