<?xml version="1.0" standalone="no"?><!DOCTYPE svg PUBLIC "-//W3C//DTD SVG 1.1//EN" "http://www.w3.org/Graphics/SVG/1.1/DTD/svg11.dtd"><svg t="1741059895762" class="icon" viewBox="0 0 1024 1024" version="1.1" xmlns="http://www.w3.org/2000/svg" p-id="4958" xmlns:xlink="http://www.w3.org/1999/xlink" width="200" height="200"><path d="M1023.74912 128.18944v767.62112c0 70.67136-57.27232 127.93856-127.93856 127.93856H128.18944c-70.66624 0-127.93856-57.27232-127.93856-127.93856V128.18944C0.25088 57.5232 57.5232 0.25088 128.18944 0.25088h767.62112c70.67136 0 127.93856 57.27232 127.93856 127.93856z" fill="#2695F7" p-id="4959"></path><path d="M894.88896 269.7472c-3.03104-17.37728-24.00256-18.8672-24.00256-18.8672h-274.31936c-19.5328 0-27.01824 26.112-27.01824 26.112l-163.39456 336.1024c-7.49056 15.9232-14.976 0-14.976 0L259.22048 352.3072c-8.97536-13.056 0-18.816 0-18.816h110.976c19.48672 2.88256 24.00256 18.816 24.00256 18.816l55.39328 114.432 48-102.81472-43.48928-89.856c-8.97536-23.18336-28.50816-26.06592-28.50816-26.06592H155.83744c-41.99936 15.93344-24.00256 47.80544-24.00256 47.80544l223.34464 453.4528c25.48736 33.32096 43.48416 26.07104 43.48416 26.07104 24.00256 0 38.97856-26.07104 38.97856-26.07104l194.88256-399.83616c7.49056-15.93856 16.512-15.93856 16.512-15.93856h118.42048c8.98048 1.43872 4.51072 15.93856 4.51072 15.93856l-134.93248 267.98592c-6.00064 14.4896-16.512 0-16.512 0l-43.48928-94.1824-47.9488 89.86112a25.73312 25.73312 0 0 0 0 15.92832l60.00128 120.23296c46.464 53.57056 79.44704 2.88256 79.44704 2.88256l221.85472-451.96288c8.96-15.92832 4.50048-30.42304 4.50048-30.42304z" fill="#FFFFFF" p-id="4960"></path></svg>